<svg width="30" height="50" viewBox="0 0 30 50" fill="none" xmlns="http://www.w3.org/2000/svg">
<path d="M14.9626 46.9252C23.2262 46.9252 29.9252 40.2262 29.9252 31.9626C29.9252 23.699 23.2262 17 14.9626 17C6.69897 17 0 23.699 0 31.9626C0 40.2262 6.69897 46.9252 14.9626 46.9252Z" fill="#6BCBEF" fill-opacity="0.2"/>
<path d="M20.5894 28.48C21.3894 28.48 21.9894 28.6533 22.3894 29C22.7894 29.3467 22.9894 29.84 22.9894 30.48C22.9894 31.8133 22.1894 32.48 20.5894 32.48H18.5494V35.64C18.5494 36.4667 18.3094 37.1067 17.8294 37.56C17.3761 38.0133 16.7761 38.24 16.0294 38.24C15.2828 38.24 14.6694 38.0133 14.1894 37.56C13.7361 37.1067 13.5094 36.4667 13.5094 35.64V32.48H3.02942C2.30942 32.48 1.74942 32.28 1.34942 31.88C0.949418 31.4533 0.749418 30.9333 0.749418 30.32C0.749418 29.68 0.962752 29.0667 1.38942 28.48L13.7494 10.72C14.0161 10.3467 14.3494 10.0667 14.7494 9.88C15.1494 9.66667 15.5628 9.56 15.9894 9.56C16.6828 9.56 17.2828 9.78667 17.7894 10.24C18.2961 10.6933 18.5494 11.3333 18.5494 12.16V28.48H20.5894ZM6.06942 28.48H13.5094V17.72L6.06942 28.48Z" fill="#03BAFE"/>
</svg>
