<svg width="30" height="50" viewBox="0 0 30 50" fill="none" xmlns="http://www.w3.org/2000/svg">
<path d="M14.9626 46.9252C23.2262 46.9252 29.9252 40.2262 29.9252 31.9626C29.9252 23.699 23.2262 17 14.9626 17C6.69897 17 0 23.699 0 31.9626C0 40.2262 6.69897 46.9252 14.9626 46.9252Z" fill="#6BCBEF" fill-opacity="0.2"/>
<path d="M19.4899 33.84C21.0899 33.84 21.8899 34.52 21.8899 35.88C21.8899 37.2933 21.0899 38 19.4899 38H4.28989C3.59655 38 3.04989 37.8 2.64989 37.4C2.24989 36.9733 2.04989 36.4533 2.04989 35.84C2.04989 35.04 2.35655 34.32 2.96989 33.68L12.0899 23.88C13.2099 22.6533 14.0232 21.5333 14.5299 20.52C15.0632 19.48 15.3299 18.4533 15.3299 17.44C15.3299 16.1867 14.9699 15.2267 14.2499 14.56C13.5299 13.8933 12.5032 13.56 11.1699 13.56C10.0766 13.56 9.00989 13.7733 7.96989 14.2C6.95655 14.6 5.92989 15.16 4.88989 15.88C4.62322 16.0667 4.35655 16.2267 4.08989 16.36C3.82322 16.4667 3.55655 16.52 3.28989 16.52C2.83655 16.52 2.43655 16.3067 2.08989 15.88C1.76989 15.4533 1.60989 14.9467 1.60989 14.36C1.60989 13.96 1.67655 13.6133 1.80989 13.32C1.96989 13.0267 2.20989 12.7467 2.52989 12.48C3.70322 11.5467 5.07655 10.8133 6.64989 10.28C8.22322 9.72 9.79655 9.44 11.3699 9.44C14.1166 9.44 16.3032 10.1333 17.9299 11.52C19.5832 12.9067 20.4099 14.7733 20.4099 17.12C20.4099 18.7467 20.0632 20.28 19.3699 21.72C18.6766 23.1333 17.5032 24.72 15.8499 26.48L8.92989 33.84H19.4899Z" fill="#03BAFE"/>
</svg>
