<svg width="30" height="50" viewBox="0 0 30 50" fill="none" xmlns="http://www.w3.org/2000/svg">
<path d="M14.9626 46.9252C23.2262 46.9252 29.9252 40.2262 29.9252 31.9626C29.9252 23.699 23.2262 17 14.9626 17C6.69897 17 0 23.699 0 31.9626C0 40.2262 6.69897 46.9252 14.9626 46.9252Z" fill="#6BCBEF" fill-opacity="0.2"/>
<path d="M19.6294 33.84C21.2294 33.84 22.0294 34.52 22.0294 35.88C22.0294 37.2933 21.2294 38 19.6294 38H6.10942C4.48275 38 3.66942 37.2933 3.66942 35.88C3.66942 34.52 4.48275 33.84 6.10942 33.84H10.2694V15.6L6.42942 17.96C6.05609 18.1733 5.72275 18.28 5.42942 18.28C4.86942 18.28 4.38942 18.04 3.98942 17.56C3.61609 17.08 3.42942 16.5467 3.42942 15.96C3.42942 15.1867 3.77609 14.5867 4.46942 14.16L10.6694 10.32C11.4694 9.84 12.2294 9.6 12.9494 9.6C13.6961 9.6 14.2961 9.82667 14.7494 10.28C15.2028 10.7333 15.4294 11.36 15.4294 12.16V33.84H19.6294Z" fill="#03BAFE"/>
</svg>
