<svg width="30" height="50" viewBox="0 0 30 50" fill="none" xmlns="http://www.w3.org/2000/svg">
<path d="M14.9626 46.9252C23.2262 46.9252 29.9252 40.2262 29.9252 31.9626C29.9252 23.699 23.2262 17 14.9626 17C6.69897 17 0 23.699 0 31.9626C0 40.2262 6.69897 46.9252 14.9626 46.9252Z" fill="#6BCBEF" fill-opacity="0.2"/>
<path d="M15.9094 23.52C17.5894 23.9467 18.8694 24.76 19.7494 25.96C20.6561 27.1333 21.1094 28.6 21.1094 30.36C21.1094 32.7867 20.2161 34.72 18.4294 36.16C16.6428 37.6 14.2294 38.32 11.1894 38.32C9.45609 38.32 7.78942 38.0533 6.18942 37.52C4.58942 36.9867 3.22942 36.24 2.10942 35.28C1.49609 34.7467 1.18942 34.12 1.18942 33.4C1.18942 32.8133 1.34942 32.32 1.66942 31.92C2.01609 31.4933 2.41609 31.28 2.86942 31.28C3.13609 31.28 3.37609 31.3333 3.58942 31.44C3.80275 31.52 4.09609 31.6667 4.46942 31.88C5.58942 32.6267 6.65609 33.2 7.66942 33.6C8.68275 34 9.78942 34.2 10.9894 34.2C12.7494 34.2 14.0561 33.8533 14.9094 33.16C15.7628 32.44 16.1894 31.36 16.1894 29.92C16.1894 28.5067 15.7361 27.4667 14.8294 26.8C13.9494 26.1067 12.5761 25.76 10.7094 25.76H8.42942C7.81609 25.76 7.33609 25.56 6.98942 25.16C6.66942 24.7333 6.50942 24.2533 6.50942 23.72C6.50942 23.16 6.66942 22.68 6.98942 22.28C7.33609 21.88 7.81609 21.68 8.42942 21.68H10.0294C13.6828 21.68 15.5094 20.3067 15.5094 17.56C15.5094 16.28 15.1228 15.2933 14.3494 14.6C13.5761 13.9067 12.5094 13.56 11.1494 13.56C9.20275 13.56 7.12275 14.3333 4.90942 15.88C4.53609 16.0933 4.24275 16.2533 4.02942 16.36C3.81609 16.44 3.57609 16.48 3.30942 16.48C2.85609 16.48 2.45609 16.28 2.10942 15.88C1.78942 15.4533 1.62942 14.9467 1.62942 14.36C1.62942 13.96 1.69609 13.6267 1.82942 13.36C1.98942 13.0667 2.22942 12.7733 2.54942 12.48C3.66942 11.5467 5.00275 10.8133 6.54942 10.28C8.12275 9.72 9.72275 9.44 11.3494 9.44C14.1228 9.44 16.3228 10.12 17.9494 11.48C19.6028 12.84 20.4294 14.6533 20.4294 16.92C20.4028 18.4667 19.9894 19.8267 19.1894 21C18.4161 22.1467 17.3228 22.9867 15.9094 23.52Z" fill="#03BAFE"/>
</svg>
